<svg xmlns="http://www.w3.org/2000/svg" fill-rule="evenodd" viewBox="0 0 100 100"><path d="M90.5 76H77V18.5a1.5 1.5 0 00-3 0V68h-5v-4.79A10.22 10.22 0 0058.79 53h-.31l-16.8-28.56a15.15 15.15 0 00-13-7.44H16.5a1.5 1.5 0 00-1.5 1.5V53h-4.5A1.5 1.5 0 009 54.5v23a1.5 1.5 0 001.5 1.5h5.73a9 9 0 0017.54 0h10.46a9 9 0 0017.54 0h5.73a1.5 1.5 0 001.5-1.5V71h5v6.5a1.5 1.5 0 001.5 1.5h15a1.5 1.5 0 000-3zM18 20h10.67a12.17 12.17 0 0110.43 6L55 53H18zm7 63a6 6 0 116-6 6 6 0 01-6 6zm28 0a6 6 0 116-6 6 6 0 01-6 6zm13-7h-4.06a9 9 0 00-17.88 0H33.94a9 9 0 00-17.88 0H12V56h46.79A7.23 7.23 0 0166 63.21z"/></svg>