<svg xmlns="http://www.w3.org/2000/svg" fill-rule="evenodd" viewBox="0 0 100 100"><path d="M50.79 48.79A31.74 31.74 0 0019.08 80.5a1.5 1.5 0 001.5 1.5H81a1.5 1.5 0 001.5-1.5 31.75 31.75 0 00-31.71-31.71zM22.12 79a28.71 28.71 0 0157.34 0zm28.14-33.33a18.35 18.35 0 0018.33-18.32c0-.46 0-.9-.07-1.35h7a1.5 1.5 0 000-3H68a18.31 18.31 0 10-17.74 22.67zm0-33.65A15.35 15.35 0 0165 23H35.57a15.35 15.35 0 0114.69-11zM35 26h30.52c0 .44.07.89.07 1.35a15.33 15.33 0 01-30.65 0q0-.69.06-1.35z"/><path d="M63.5 61a6.5 6.5 0 106.5 6.5 6.51 6.51 0 00-6.5-6.5zm0 10a3.5 3.5 0 113.5-3.5 3.5 3.5 0 01-3.5 3.5z"/></svg>