<svg xmlns="http://www.w3.org/2000/svg" data-name="Слой 1" viewBox="0 0 595.28 841.89"><path d="M170.07 492.86V348.94a15.68 15.68 0 001.73-2.86c3.82-11.28 12.69-15.08 23.45-15.08q102.78-.19 205.55 0a32.52 32.52 0 0111 2c7.79 2.78 10.71 9.45 14.1 15.89v144.97c-1.59.42-1.66 2.05-2.13 3.13-4.27 9.89-12.44 13.77-22.44 13.79q-103.28.21-206.56.06c-6.87 0-13-2-18-6.93-3.09-3.13-4.77-7.15-6.7-11.05zm26.24-146.78c1.83 2 3.05 3.57 4.46 4.92 17.37 16.62 33.25 34.72 50.9 51.1 13.31 12.35 25 26.33 38.35 38.72 5.37 5 10.79 5.54 15.6.45 10-10.64 20.43-20.93 30.85-31.19q22.9-22.54 45.5-45.4c5.89-5.92 11.57-12.06 17.83-18.6zm-.06 149.48h203c-.19-.6-.19-1-.38-1.18q-30.33-30.54-60.64-61.07c-1.95-2-3-1.55-4.75.26-6.86 6.95-13.8 13.83-20.95 20.46-6.89 6.4-18.67 6.82-26.56 1.88-9.28-5.82-14.79-15.47-23.22-22.15-2.19-1.73-3.05-1.9-5 .07-6.41 6.43-13.19 12.51-19.58 19-13.93 13.97-27.64 28.17-41.92 42.73zm-11-11.75c20.43-19.93 41.3-40.38 62.31-60.68 2.16-2.1 1.3-2.93-.23-4.64-12.09-13.5-25.75-25.43-38.2-38.57-7.59-8-15.54-15.7-23.88-24.07zM410.7 357c-2.5 2.25-5.14 4.45-7.57 6.86-18 17.86-35.8 35.86-53.9 53.58-3.08 3-2.61 4.32.19 7.07 13.53 13.28 26.8 26.83 40.16 40.29l21.12 21.27z" fill="#26262b"/></svg>