<svg xmlns="http://www.w3.org/2000/svg" data-name="Слой 1" viewBox="0 0 595.28 841.89"><path d="M244 293c5.66 4.23 7 10.95 9.4 16.94 8.9 22 17.6 44.06 26.31 66.13 2.77 7 1.44 9.54-5.78 12.35-10 3.9-19.93 8-29.94 11.92-2.56 1-3 2.74-2.73 5.05 3.74 29.34 19.34 50.48 45 64.41 8.08 4.38 17.21 5.8 26 8 6.56 1.61 6.72-4.57 8.2-7.81 4-8.82 7-18.1 10.59-27.15 1.63-4.17 5-5.65 9.55-4.21 14.2 4.51 27.68 10.89 41.59 16.19 11.58 4.42 23 9.29 34.53 13.8a23.8 23.8 0 019.08 6.27v12c-1.28.5-1.47 1.87-1.61 2.81a66 66 0 01-9.22 24.69C408 526 398.16 534.48 386.34 541c-7.65 4.17-16.22 5.37-24.39 7.86h-1c-1-1.07-2-.85-3 0H348c-1-.84-2-1.27-3 0h-8c-1.33-1.93-3.45-1.46-5.31-1.67A179.74 179.74 0 01280 533a182.94 182.94 0 01-33-19 177.65 177.65 0 01-37-35.08c-19.58-25.08-32.33-53.24-37.36-84.85-.63-4 .41-8.57-2.61-12.11V353c.91 0 1.09-.36 1.34-1.41 5.67-24.2 19.29-42.06 42.12-52.59 6-2.75 12.6-3.16 18.5-6zm104.89 240.82c6.52.24 13 .16 19.3-1.58q32.9-9.12 41.42-42.27c2.1-8.22 2-8.48-4.65-10.87-20-7.22-39.7-15.4-59.34-23.65-1.77-.74-3.49-1.63-4.72 1.77-3.43 9.55-8 18.7-11.31 28.29-1.76 5.1-4.64 6.73-9.48 6.71a84 84 0 01-37-8.32c-35.82-17.58-55.1-46.07-56.35-86.33-.14-4.4 1.78-6.61 5.61-8.06 9.48-3.59 18.91-7.31 28.32-11.06 2.12-.85 4.24-1.68 2.87-5-8.51-20.56-17.06-41.12-25.12-61.85-1.35-3.48-2.77-3.8-5.64-3.2-8.38 1.75-16.43 4.2-23.51 9.3-14.14 10.18-22.73 23.89-24 41.16-1.46 19.82 1.51 39.32 7.64 58.26a164 164 0 0023.89 46.74 171.52 171.52 0 0041.65 40.66c27.31 18.69 57.47 28.26 90.42 29.3z" fill="#27272d"/><path d="M345 548.81c1-1.27 2-.84 3 0zm13 0c1-.85 2-1.07 3 0z" fill="#fcfcfc"/></svg>