<?xml version="1.0" encoding="UTF-8"?> <svg xmlns="http://www.w3.org/2000/svg" id="Слой_1" data-name="Слой 1" viewBox="0 0 595.28 841.89"> <defs> <style>.cls-1{fill:#26262b;}</style> </defs> <path class="cls-1" d="M170.1,339c2.18-5.89,6.68-8,12.64-8q114.63,0,229.26,0c5.84,0,10.86,1.5,13.9,7v7c-4.82,5.76-11.28,6.08-18.18,6.07q-111.29-.18-222.56.05c-6.55,0-11.55-1.54-15.06-7.12Z"></path> <path class="cls-1" d="M425.9,424.89c-4.82,5.76-11.28,6.08-18.18,6.06q-111.29-.17-222.56.06c-6.55,0-11.55-1.55-15.06-7.12v-5c2.18-5.88,6.68-8,12.64-8q114.63,0,229.26,0c5.84,0,10.86,1.5,13.9,7Z"></path> <path class="cls-1" d="M425.9,504.82c-4.82,5.76-11.28,6.08-18.18,6.07q-111.29-.18-222.56.05c-6.55,0-11.55-1.55-15.06-7.12v-5c2.18-5.88,6.68-8,12.64-8q114.63,0,229.26,0c5.84,0,10.86,1.5,13.9,7Z"></path> </svg> 