<?xml version="1.0" encoding="UTF-8"?> <svg xmlns="http://www.w3.org/2000/svg" viewBox="1950 2450 100 100" width="100" height="100"><ellipse color="rgb(51, 51, 51)" fill="" class="st0" cx="2000" cy="2500.2" r="50" id="tSvg1771b662856" fill-opacity="0" stroke="#000000" stroke-opacity="1" rx="48" ry="48" style="transform: rotate(0deg);" stroke-width="3"></ellipse><path fill="none" stroke="rgb(35, 31, 32)" fill-opacity="1" stroke-width="2" stroke-opacity="1" color="rgb(51, 51, 51)" stroke-miterlimit="10" class="st3" id="tSvgd7dd8f347a" d="M 2022.8 2479.4 C 2013.1 2479.4 2003.4 2479.4 1993.7 2479.4 C 1993.7 2487.1 1993.7 2494.8 1993.7 2502.5 C 1995.9333333333334 2502.5 1998.1666666666667 2502.5 2000.4 2502.5 C 2000.4 2504.7 2000.4 2506.9 2000.4 2509.1 C 2002.6333333333334 2506.9 2004.8666666666666 2504.7 2007.1 2502.5 C 2012.3333333333333 2502.5 2017.5666666666666 2502.5 2022.8 2502.5C 2022.8 2494.8 2022.8 2487.1 2022.8 2479.4Z"></path><path fill="none" stroke="rgb(35, 31, 32)" fill-opacity="1" stroke-width="2" stroke-opacity="1" color="rgb(51, 51, 51)" stroke-miterlimit="10" class="st3" id="tSvgd5e757b686" d="M 1993.7 2492.1 C 1989.0666666666666 2492.1 1984.4333333333334 2492.1 1979.8 2492.1 C 1979.8 2499.8 1979.8 2507.5 1979.8 2515.2 C 1982.2333333333333 2515.2 1984.6666666666667 2515.2 1987.1 2515.2 C 1989.3333333333333 2517.5666666666666 1991.5666666666666 2519.9333333333334 1993.8 2522.3 C 1993.8 2519.9333333333334 1993.8 2517.5666666666666 1993.8 2515.2 C 1999.3 2515.2 2004.8 2515.2 2010.3 2515.2 C 2010.3 2511.0666666666666 2010.3 2506.9333333333334 2010.3 2502.8"></path><ellipse color="rgb(51, 51, 51)" stroke-miterlimit="10" stroke-width="2" stroke="rgb(35, 31, 32)" class="st3" cx="2000.8692116206892" cy="2485.6885115352284" rx="1.7000115780371061" ry="1.7000115780372198" id="tSvg17117fc043a" fill="none" fill-opacity="1" stroke-opacity="1" style="transform: rotate(359.789deg);"></ellipse><ellipse color="rgb(51, 51, 51)" stroke-miterlimit="10" stroke-width="2" stroke="rgb(35, 31, 32)" class="st3" cx="2008.6693116206889" cy="2485.717311535228" rx="1.7000115780371061" ry="1.7000115780372198" id="tSvg4857d98d8f" fill="none" fill-opacity="1" stroke-opacity="1" style="transform: rotate(359.789deg);"></ellipse><defs> </defs></svg> 