<?xml version="1.0" encoding="UTF-8"?> <svg xmlns="http://www.w3.org/2000/svg" viewBox="1950 2450 100 100" width="100" height="100"><ellipse color="rgb(51, 51, 51)" stroke-width="3" stroke="#333333" fill-opacity="1" fill="none" class="st0" cx="2000" cy="2499.7" r="50" id="tSvgad48cf0965" stroke-opacity="1" rx="48" ry="47.5" style="transform: rotate(0deg);"></ellipse><path fill="none" stroke="rgb(0, 0, 0)" fill-opacity="1" stroke-width="2" stroke-opacity="1" color="rgb(51, 51, 51)" stroke-miterlimit="10" class="st5" id="tSvgf81b486b36" d="M 1999.6 2475.6 C 1997.2666666666667 2480.3 1994.9333333333334 2485 1992.6 2489.7 C 1987.4333333333334 2490.4666666666667 1982.2666666666667 2491.233333333333 1977.1 2492 C 1975.7 2492.2 1975.2 2493.9 1976.2 2494.8 C 1979.9333333333334 2498.4666666666667 1983.6666666666667 2502.133333333333 1987.4 2505.8 C 1986.5333333333333 2511 1985.6666666666667 2516.2 1984.8 2521.4 C 1984.6 2522.7 1986 2523.8 1987.2 2523.2 C 1991.9333333333334 2520.8 1996.6666666666667 2518.4 2001.4 2516 C 2005.9333333333334 2518.4 2010.4666666666667 2520.8 2015 2523.2 C 2016.2 2523.8 2017.6 2522.8 2017.4 2521.4 C 2016.5 2516.266666666667 2015.6 2511.133333333333 2014.7 2506 C 2018.4333333333334 2502.3333333333335 2022.1666666666667 2498.6666666666665 2025.9 2495 C 2026.8 2494.1 2026.4 2492.4 2025 2492.2 C 2019.8 2491.4666666666667 2014.6 2490.733333333333 2009.4 2490 C 2007.0666666666666 2485.3 2004.7333333333333 2480.6 2002.4 2475.9C 2002 2474.5 2000.2 2474.5 1999.6 2475.6Z"></path><defs> </defs></svg> 