<?xml version="1.0" encoding="UTF-8"?> <svg xmlns="http://www.w3.org/2000/svg" viewBox="1950 2450 100 100" width="100" height="100"><ellipse color="rgb(51, 51, 51)" fill="" class="st0" cx="2000" cy="2500.2" r="50" id="tSvg1156580e9b6" fill-opacity="0" stroke="#333333" stroke-opacity="1" rx="48" ry="48" style="transform: rotate(0deg);" stroke-width="3"></ellipse><rect color="rgb(51, 51, 51)" stroke-miterlimit="10" stroke-width="2" stroke="rgb(0, 0, 0)" x="1973.2" y="2494.2" class="st5" width="45.2" height="24.7" id="tSvg157324046cb" fill="none" fill-opacity="1" stroke-opacity="1" style="transform: rotate(0deg);"></rect><ellipse color="rgb(51, 51, 51)" stroke-miterlimit="10" stroke-width="2" stroke="rgb(0, 0, 0)" class="st5" cx="1996" cy="2506.5" r="7.7" id="tSvg1697612b59b" fill="none" fill-opacity="1" stroke-opacity="1" rx="7.7" ry="7.7" style="transform: rotate(0deg);"></ellipse><line color="rgb(51, 51, 51)" stroke-miterlimit="10" stroke-width="2" stroke="rgb(0, 0, 0)" class="st5" x1="1977.9" y1="2498.9" x2="1977.9" y2="2514.2" id="tSvgfd67e22bca" fill="none" fill-opacity="1" stroke-opacity="1"></line><line color="rgb(51, 51, 51)" stroke-miterlimit="10" stroke-width="2" stroke="rgb(0, 0, 0)" class="st5" x1="2013.8" y1="2498.9" x2="2013.8" y2="2514.2" id="tSvg1588aa7b308" fill="none" fill-opacity="1" stroke-opacity="1"></line><path fill="none" stroke="rgb(0, 0, 0)" fill-opacity="1" stroke-width="2" stroke-opacity="1" color="rgb(51, 51, 51)" stroke-miterlimit="10" class="st5" id="tSvg81d559837d" d="M 1978.7 2494.2 C 1978.7 2492.2 1978.7 2490.2 1978.7 2488.2 C 1993.7666666666667 2488.2 2008.8333333333333 2488.2 2023.9 2488.2 C 2023.9 2496.4333333333334 2023.9 2504.6666666666665 2023.9 2512.9 C 2022.0666666666666 2512.9 2020.2333333333333 2512.9 2018.4 2512.9"></path><path fill="none" stroke="rgb(0, 0, 0)" fill-opacity="1" stroke-width="2" stroke-opacity="1" color="rgb(51, 51, 51)" stroke-miterlimit="10" class="st5" id="tSvgceddc50805" d="M 1983.8 2488.7 C 1983.8 2486.7 1983.8 2484.7 1983.8 2482.7 C 1998.8666666666666 2482.7 2013.9333333333334 2482.7 2029 2482.7 C 2029 2490.9333333333334 2029 2499.1666666666665 2029 2507.4 C 2027.1666666666667 2507.4 2025.3333333333333 2507.4 2023.5 2507.4"></path><defs> </defs></svg> 