<svg xmlns="http://www.w3.org/2000/svg" fill-rule="evenodd" viewBox="0 0 100 100"><path d="M90.94 53.35A14.34 14.34 0 0081 49.1V28.78a1.47 1.47 0 00-.67-1.24L43.73 3.13a1.49 1.49 0 00-1.67 0L5.67 27.39A1.49 1.49 0 005 28.64v34.09A1.48 1.48 0 005.68 64L43 88.43a1.52 1.52 0 001.67 0l24-16.68a1.86 1.86 0 00.29-.27l10.14 17.8a1.54 1.54 0 001.28.77 1.49 1.49 0 001.27-.71L93 71.29a1.08 1.08 0 00.12-.24 14.47 14.47 0 00-2.15-17.7zm-47.1-2.07l-16.56-11 33.17-22.39 16.88 11.25zm-1-45.1l14.87 9.91-33.13 22.37-15.07-10zM8 31l34 22.66v30.52L8 61.92zm37 53.54V54.11l33-21.82v17.05a14.52 14.52 0 00-11.83 14.23 11.39 11.39 0 001.26 5.51 1.33 1.33 0 00-.4.19zM92.17 63.6a11.55 11.55 0 01-1.78 6.11 1.63 1.63 0 00-.11.23l-9.81 15.67L71.06 69a1.54 1.54 0 00-.44-.63c-.7-.57-1.45-2.31-1.45-4.77a11.51 11.51 0 0111.51-11.51A11.47 11.47 0 0192.17 63.6z"/><path d="M80.68 56.55a6.35 6.35 0 00-6.35 6.33 6.33 6.33 0 006.34 6.36 6.35 6.35 0 000-12.69zM84 62.9a3.35 3.35 0 01-3.34 3.34 3.32 3.32 0 01-2.36-1 3.26 3.26 0 01-1-2.37 3.34 3.34 0 013.34-3.34A3.35 3.35 0 0184 62.9z"/></svg>