<svg xmlns="http://www.w3.org/2000/svg" fill-rule="evenodd" viewBox="0 0 100 100"><path d="M85.3 20.33l-34.2-15a1.48 1.48 0 00-1.2 0l-34.2 15a1.48 1.48 0 00-.9 1.42l1.56 44.37a29 29 0 0017 24.14l16.54 7.47a1.44 1.44 0 001.24 0l16.54-7.47a29 29 0 0017-24.21l1.56-44.3a1.48 1.48 0 00-.94-1.42zm-3.65 45.55a26 26 0 01-15.22 21.65L50.5 94.72l-15.93-7.19A26 26 0 0119.36 66l-1.53-43.33L50.5 8.36l32.67 14.31z"/><path d="M40 32.48V38H29.5a1.5 1.5 0 00-1.5 1.5v29a1.5 1.5 0 001.5 1.5h42a1.5 1.5 0 001.5-1.5v-29a1.5 1.5 0 00-1.5-1.5H61v-5.87a10.52 10.52 0 00-3.3-7.64 10.4 10.4 0 00-7.85-2.84A10.7 10.7 0 0040 32.48zM70 67H31V41h39zM55.64 26.67A7.43 7.43 0 0158 32.13V38H43v-5.52a7.7 7.7 0 017-7.84 7.47 7.47 0 015.64 2.03z"/><path d="M50.5 46.05a5 5 0 00-1.5 9.74v4.71a1.5 1.5 0 003 0v-4.71a5 5 0 00-1.5-9.74zm0 7a2 2 0 112-2 2 2 0 01-2 2z"/></svg>