<svg xmlns="http://www.w3.org/2000/svg" fill-rule="evenodd" viewBox="0 0 100 100"><path d="M66 22.57V17h7.5a1.5 1.5 0 000-3h-18a1.5 1.5 0 000 3H63v5.56a31.81 31.81 0 103 0zm-1.65 60.65A28.85 28.85 0 1193.2 54.37a28.88 28.88 0 01-28.85 28.85z"/><path d="M57.14 73.94A20.93 20.93 0 0143.5 54.37a1.5 1.5 0 00-3 0 23.94 23.94 0 0015.6 22.38 1.36 1.36 0 00.52.09 1.5 1.5 0 00.52-2.9zm20.03-3.13a20.84 20.84 0 01-10 4.22 1.5 1.5 0 00.19 3h.2A23.76 23.76 0 0079 73.17a1.5 1.5 0 10-1.85-2.36zm-7.84-16.44a4.94 4.94 0 00-.77-2.63l10.33-10.59a1.5 1.5 0 00-2.15-2.09L66.29 49.78a5 5 0 103 4.59zm-5 2a2 2 0 112-2 2 2 0 01-1.98 1.99zM25 55.5a1.5 1.5 0 00-1.5-1.5h-18a1.5 1.5 0 000 3h18a1.5 1.5 0 001.5-1.5zM26.5 68h-18a1.5 1.5 0 000 3h18a1.5 1.5 0 000-3zm0-29h-18a1.5 1.5 0 000 3h18a1.5 1.5 0 000-3z"/></svg>