<svg xmlns="http://www.w3.org/2000/svg" fill-rule="evenodd" viewBox="0 0 100 100"><path d="M71.722 43.961c.417 0 .831-.173 1.127-.511l2.938-3.346a1.499 1.499 0 10-2.254-1.978l-2.938 3.346a1.499 1.499 0 001.127 2.489zm1.461 12.921a1.5 1.5 0 00-2.256 1.978l2.938 3.35a1.497 1.497 0 002.116.139 1.5 1.5 0 00.139-2.117l-2.937-3.35z"/><path d="M48.597 51.815h4.453c.805 0 1.457-.636 1.493-1.432.036 5.028 4.03 9.121 9.016 9.339a1.494 1.494 0 00-1.086 1.435v4.453a1.5 1.5 0 103 0v-4.453c0-.684-.46-1.255-1.086-1.435 4.892-.214 8.82-4.16 9-9.058a1.498 1.498 0 001.455 1.151h4.453a1.5 1.5 0 100-3h-4.453c-.708 0-1.297.492-1.455 1.151-.177-4.819-3.978-8.719-8.756-9.051.497-.244.842-.751.842-1.342v-4.456a1.5 1.5 0 10-3 0v4.456c0 .591.345 1.098.842 1.342a9.384 9.384 0 00-5.26 2.064c.184-.5.103-1.08-.273-1.508l-2.937-3.346a1.5 1.5 0 00-2.255 1.978l2.937 3.346c.297.338.711.511 1.128.511.148 0 .294-.034.437-.078a9.39 9.39 0 00-2.549 6.364 1.496 1.496 0 00-1.493-1.432h-4.453a1.5 1.5 0 100 3.001zm15.375-7.933a6.44 6.44 0 016.432 6.433c0 3.544-2.885 6.428-6.432 6.428s-6.433-2.884-6.433-6.428a6.442 6.442 0 016.433-6.433z"/><path d="M54.92 57.159l-2.937 3.347a1.5 1.5 0 102.255 1.978l2.937-3.347a1.5 1.5 0 00-2.255-1.978z"/><path d="M90.337 8.161H9.664c-.023 0-.044.006-.067.007a1.445 1.445 0 00-.436.086 1.268 1.268 0 00-.26.123 1.424 1.424 0 00-.232.17 1.398 1.398 0 00-.116.115c-.015.017-.033.029-.047.047-.014.017-.023.037-.036.055a1.707 1.707 0 00-.156.256 1.715 1.715 0 00-.1.279 1.574 1.574 0 00-.043.296c-.001.023-.007.045-.007.068V90.34c0 .023.006.045.007.068a1.552 1.552 0 00.086.434 1.415 1.415 0 00.214.397c.013.017.022.036.036.053.013.015.029.026.042.04.046.052.096.099.149.145.03.025.058.051.09.074.055.04.115.074.176.106.031.017.061.036.093.051.072.032.148.055.226.076.023.006.046.016.069.021.101.022.206.034.313.034h80.673a1.5 1.5 0 001.5-1.5V9.662a1.501 1.501 0 00-1.501-1.501zM34.886 32.372v35.254L11.164 87.159v-74.32l23.722 19.533zm53.951 56.466H13.845l23.494-19.346a1.5 1.5 0 00.546-1.158v-36.67c0-.448-.201-.873-.546-1.158L13.845 11.161h74.991v77.677h.001z"/></svg>